<mxfile host="app.diagrams.net" modified="2024-03-16T17:00:03.201Z" agent="Mozilla/5.0 (Macintosh; Intel Mac OS X 10_15_7) AppleWebKit/537.36 (KHTML, like Gecko) Chrome/122.0.0.0 Safari/537.36" etag="m9eyfrqJF--7Xql_GpWG" version="24.0.1" type="github">
  <diagram name="Version-1" id="Y2WjuvX7hO9Vn0jHDt_I">
    <mxGraphModel dx="1246" dy="1269" grid="0" gridSize="10" guides="1" tooltips="1" connect="1" arrows="1" fold="1" page="1" pageScale="1" pageWidth="1400" pageHeight="850" math="0" shadow="0">
      <root>
        <mxCell id="0" />
        <mxCell id="1" parent="0" />
        <mxCell id="fa2TgRjNBBgpzOrha1pa-1" value="&lt;span style=&quot;font-size: 14px;&quot;&gt;&lt;font style=&quot;font-size: 14px;&quot;&gt;UITableViewController&lt;/font&gt;&lt;/span&gt;" style="rounded=0;whiteSpace=wrap;html=1;strokeWidth=4;fillColor=none;strokeColor=#5CC93B;fontSize=14;fontColor=#5CC93B;" parent="1" vertex="1">
          <mxGeometry x="755" y="1148" width="186" height="45" as="geometry" />
        </mxCell>
        <mxCell id="BpPRSDlrW4VKUzsqnZfC-10" style="edgeStyle=orthogonalEdgeStyle;rounded=0;orthogonalLoop=1;jettySize=auto;html=1;entryX=0.478;entryY=0.068;entryDx=0;entryDy=0;entryPerimeter=0;strokeWidth=2;strokeColor=#C49BF9;endSize=6;endArrow=block;endFill=0;" parent="1" source="fa2TgRjNBBgpzOrha1pa-2" target="fa2TgRjNBBgpzOrha1pa-1" edge="1">
          <mxGeometry relative="1" as="geometry" />
        </mxCell>
        <mxCell id="BpPRSDlrW4VKUzsqnZfC-11" style="edgeStyle=orthogonalEdgeStyle;rounded=0;orthogonalLoop=1;jettySize=auto;html=1;exitX=0.75;exitY=1;exitDx=0;exitDy=0;entryX=0.5;entryY=0;entryDx=0;entryDy=0;strokeWidth=2;strokeColor=#C49BF9;" parent="1" source="fa2TgRjNBBgpzOrha1pa-2" target="BpPRSDlrW4VKUzsqnZfC-8" edge="1">
          <mxGeometry relative="1" as="geometry">
            <Array as="points">
              <mxPoint x="889" y="1113" />
              <mxPoint x="1027" y="1113" />
            </Array>
          </mxGeometry>
        </mxCell>
        <mxCell id="5NVDTo8bunI5TLv0N01t-4" style="edgeStyle=orthogonalEdgeStyle;rounded=0;orthogonalLoop=1;jettySize=auto;html=1;exitX=0.25;exitY=1;exitDx=0;exitDy=0;strokeWidth=2;strokeColor=#C49BF9;" parent="1" source="fa2TgRjNBBgpzOrha1pa-2" target="5NVDTo8bunI5TLv0N01t-1" edge="1">
          <mxGeometry relative="1" as="geometry" />
        </mxCell>
        <mxCell id="5NVDTo8bunI5TLv0N01t-10" style="edgeStyle=orthogonalEdgeStyle;rounded=0;orthogonalLoop=1;jettySize=auto;html=1;entryX=1;entryY=0.5;entryDx=0;entryDy=0;strokeWidth=2;strokeColor=#C49BF9;" parent="1" source="fa2TgRjNBBgpzOrha1pa-2" target="5NVDTo8bunI5TLv0N01t-7" edge="1">
          <mxGeometry relative="1" as="geometry" />
        </mxCell>
        <mxCell id="iK6Vckgqgcv6s7LHoRTM-12" style="edgeStyle=orthogonalEdgeStyle;rounded=0;orthogonalLoop=1;jettySize=auto;html=1;exitX=0.75;exitY=0;exitDx=0;exitDy=0;entryX=0;entryY=0.5;entryDx=0;entryDy=0;strokeWidth=2;strokeColor=#C49BF9;" parent="1" source="fa2TgRjNBBgpzOrha1pa-2" target="iK6Vckgqgcv6s7LHoRTM-6" edge="1">
          <mxGeometry relative="1" as="geometry" />
        </mxCell>
        <mxCell id="iK6Vckgqgcv6s7LHoRTM-27" style="edgeStyle=orthogonalEdgeStyle;rounded=0;orthogonalLoop=1;jettySize=auto;html=1;exitX=1;exitY=0.75;exitDx=0;exitDy=0;entryX=0.25;entryY=0;entryDx=0;entryDy=0;strokeWidth=2;strokeColor=#C49BF9;" parent="1" source="fa2TgRjNBBgpzOrha1pa-2" target="5NVDTo8bunI5TLv0N01t-2" edge="1">
          <mxGeometry relative="1" as="geometry">
            <Array as="points">
              <mxPoint x="971" y="1060" />
              <mxPoint x="971" y="1097" />
              <mxPoint x="1150" y="1097" />
            </Array>
          </mxGeometry>
        </mxCell>
        <mxCell id="fa2TgRjNBBgpzOrha1pa-2" value="&lt;font style=&quot;font-size: 14px;&quot;&gt;FeedViewController&lt;/font&gt;" style="rounded=0;whiteSpace=wrap;html=1;fillColor=none;strokeColor=#C49BF9;strokeWidth=4;fontSize=14;fontColor=#C49BF9;" parent="1" vertex="1">
          <mxGeometry x="756" y="1027" width="177" height="44" as="geometry" />
        </mxCell>
        <mxCell id="kslnaKKYkAR8ZkGTqqHD-34" style="edgeStyle=orthogonalEdgeStyle;rounded=0;orthogonalLoop=1;jettySize=auto;html=1;entryX=0;entryY=0.5;entryDx=0;entryDy=0;strokeColor=#FF0000;fontColor=#FF0000;strokeWidth=2;" parent="1" source="fa2TgRjNBBgpzOrha1pa-3" target="kslnaKKYkAR8ZkGTqqHD-33" edge="1">
          <mxGeometry relative="1" as="geometry" />
        </mxCell>
        <mxCell id="fa2TgRjNBBgpzOrha1pa-3" value="&lt;font style=&quot;font-size: 14px;&quot;&gt;&amp;lt;FeedLoader&amp;gt;&lt;/font&gt;" style="rounded=0;whiteSpace=wrap;html=1;fillColor=none;strokeColor=#FF0000;strokeWidth=4;fontSize=14;fontColor=#FF0000;" parent="1" vertex="1">
          <mxGeometry x="714" y="596.5" width="120" height="39" as="geometry" />
        </mxCell>
        <mxCell id="KoEfR0-JcFAQGKNgfmnl-4" style="edgeStyle=orthogonalEdgeStyle;rounded=0;orthogonalLoop=1;jettySize=auto;html=1;entryX=0;entryY=0.5;entryDx=0;entryDy=0;strokeWidth=2;strokeColor=#D70C70;" parent="1" source="fa2TgRjNBBgpzOrha1pa-6" target="kslnaKKYkAR8ZkGTqqHD-20" edge="1">
          <mxGeometry relative="1" as="geometry" />
        </mxCell>
        <mxCell id="KoEfR0-JcFAQGKNgfmnl-11" style="edgeStyle=orthogonalEdgeStyle;rounded=0;orthogonalLoop=1;jettySize=auto;html=1;exitX=1;exitY=0.25;exitDx=0;exitDy=0;entryX=0;entryY=0.5;entryDx=0;entryDy=0;strokeWidth=2;strokeColor=#D70C70;" parent="1" source="fa2TgRjNBBgpzOrha1pa-6" target="kslnaKKYkAR8ZkGTqqHD-19" edge="1">
          <mxGeometry relative="1" as="geometry" />
        </mxCell>
        <mxCell id="KoEfR0-JcFAQGKNgfmnl-13" style="edgeStyle=orthogonalEdgeStyle;rounded=0;orthogonalLoop=1;jettySize=auto;html=1;entryX=0.5;entryY=1;entryDx=0;entryDy=0;strokeWidth=2;strokeColor=#D70C70;" parent="1" source="fa2TgRjNBBgpzOrha1pa-6" target="KoEfR0-JcFAQGKNgfmnl-10" edge="1">
          <mxGeometry relative="1" as="geometry" />
        </mxCell>
        <mxCell id="iK6Vckgqgcv6s7LHoRTM-32" style="edgeStyle=orthogonalEdgeStyle;rounded=0;orthogonalLoop=1;jettySize=auto;html=1;exitX=0;exitY=0.75;exitDx=0;exitDy=0;entryX=0.75;entryY=0;entryDx=0;entryDy=0;strokeWidth=2;strokeColor=#D70C70;" parent="1" source="fa2TgRjNBBgpzOrha1pa-6" target="fa2TgRjNBBgpzOrha1pa-3" edge="1">
          <mxGeometry relative="1" as="geometry">
            <mxPoint x="793" y="581" as="targetPoint" />
          </mxGeometry>
        </mxCell>
        <mxCell id="iK6Vckgqgcv6s7LHoRTM-33" style="edgeStyle=orthogonalEdgeStyle;rounded=0;orthogonalLoop=1;jettySize=auto;html=1;entryX=0.75;entryY=0;entryDx=0;entryDy=0;strokeWidth=2;strokeColor=#D70C70;" parent="1" source="fa2TgRjNBBgpzOrha1pa-6" target="kslnaKKYkAR8ZkGTqqHD-33" edge="1">
          <mxGeometry relative="1" as="geometry" />
        </mxCell>
        <mxCell id="fa2TgRjNBBgpzOrha1pa-6" value="&lt;font style=&quot;font-size: 14px;&quot;&gt;LocalFeedLoader&lt;/font&gt;" style="rounded=0;whiteSpace=wrap;html=1;fillColor=none;strokeColor=#D70C70;strokeWidth=4;fontColor=#D70C70;fontSize=14;" parent="1" vertex="1">
          <mxGeometry x="917" y="362" width="159" height="46" as="geometry" />
        </mxCell>
        <mxCell id="fa2TgRjNBBgpzOrha1pa-8" value="" style="html=1;labelBackgroundColor=#ffffff;startArrow=none;startFill=0;startSize=6;endArrow=block;endFill=0;endSize=6;jettySize=auto;orthogonalLoop=1;strokeWidth=2;dashed=1;fontSize=14;rounded=0;entryX=0.25;entryY=0;entryDx=0;entryDy=0;strokeColor=#0066CC;exitX=1;exitY=0.5;exitDx=0;exitDy=0;" parent="1" source="8nE0R6XnKWqMKPDeoMGo-2" target="fa2TgRjNBBgpzOrha1pa-3" edge="1">
          <mxGeometry width="60" height="60" relative="1" as="geometry">
            <mxPoint x="637" y="301" as="sourcePoint" />
            <mxPoint x="577" y="396" as="targetPoint" />
            <Array as="points">
              <mxPoint x="745" y="278" />
            </Array>
          </mxGeometry>
        </mxCell>
        <mxCell id="iK6Vckgqgcv6s7LHoRTM-24" style="edgeStyle=orthogonalEdgeStyle;rounded=0;orthogonalLoop=1;jettySize=auto;html=1;entryX=0.5;entryY=0;entryDx=0;entryDy=0;strokeWidth=2;dashed=1;strokeColor=#E6E6E6;endArrow=block;endFill=0;" parent="1" source="fa2TgRjNBBgpzOrha1pa-10" target="fa2TgRjNBBgpzOrha1pa-3" edge="1">
          <mxGeometry relative="1" as="geometry" />
        </mxCell>
        <mxCell id="fa2TgRjNBBgpzOrha1pa-10" value="&lt;font style=&quot;font-size: 14px;&quot;&gt;RemoteWithLocalFallbackFeedLoader&lt;/font&gt;" style="rounded=0;whiteSpace=wrap;html=1;fillColor=none;strokeColor=#E6E6E6;strokeWidth=4;fontSize=14;fontColor=#E6E6E6;" parent="1" vertex="1">
          <mxGeometry x="647" y="120" width="250" height="39" as="geometry" />
        </mxCell>
        <mxCell id="fa2TgRjNBBgpzOrha1pa-12" value="" style="endArrow=classic;html=1;rounded=0;exitX=0.152;exitY=1.026;exitDx=0;exitDy=0;exitPerimeter=0;strokeWidth=2;strokeColor=#E6E6E6;entryX=0.75;entryY=0;entryDx=0;entryDy=0;fontColor=#E6E6E6;" parent="1" source="fa2TgRjNBBgpzOrha1pa-10" target="8nE0R6XnKWqMKPDeoMGo-2" edge="1">
          <mxGeometry width="50" height="50" relative="1" as="geometry">
            <mxPoint x="684.0450000000001" y="184.0139999999999" as="sourcePoint" />
            <mxPoint x="639.998" y="253.98900000000003" as="targetPoint" />
            <Array as="points">
              <mxPoint x="684" y="208" />
              <mxPoint x="550" y="208" />
            </Array>
          </mxGeometry>
        </mxCell>
        <mxCell id="fa2TgRjNBBgpzOrha1pa-13" value="" style="endArrow=classic;html=1;rounded=0;exitX=0.816;exitY=0.949;exitDx=0;exitDy=0;exitPerimeter=0;strokeWidth=2;strokeColor=#E6E6E6;fontColor=#E6E6E6;entryX=0;entryY=0.5;entryDx=0;entryDy=0;" parent="1" source="fa2TgRjNBBgpzOrha1pa-10" target="fa2TgRjNBBgpzOrha1pa-6" edge="1">
          <mxGeometry width="50" height="50" relative="1" as="geometry">
            <mxPoint x="849" y="189" as="sourcePoint" />
            <mxPoint x="1003" y="334" as="targetPoint" />
            <Array as="points">
              <mxPoint x="849" y="213" />
              <mxPoint x="846" y="385" />
            </Array>
          </mxGeometry>
        </mxCell>
        <mxCell id="fa2TgRjNBBgpzOrha1pa-14" style="edgeStyle=orthogonalEdgeStyle;rounded=0;orthogonalLoop=1;jettySize=auto;html=1;strokeWidth=2;dashed=1;strokeColor=#E6E6E6;exitX=0.5;exitY=0;exitDx=0;exitDy=0;fontColor=#E6E6E6;entryX=0.701;entryY=0.1;entryDx=0;entryDy=0;entryPerimeter=0;" parent="1" source="fa2TgRjNBBgpzOrha1pa-18" target="8nE0R6XnKWqMKPDeoMGo-17" edge="1">
          <mxGeometry relative="1" as="geometry">
            <Array as="points">
              <mxPoint x="1362" y="99" />
              <mxPoint x="1362" y="45" />
              <mxPoint x="500" y="45" />
            </Array>
            <mxPoint x="1151" y="118" as="sourcePoint" />
            <mxPoint x="500" y="228" as="targetPoint" />
          </mxGeometry>
        </mxCell>
        <mxCell id="fa2TgRjNBBgpzOrha1pa-15" style="edgeStyle=orthogonalEdgeStyle;rounded=0;orthogonalLoop=1;jettySize=auto;html=1;entryX=1;entryY=0.5;entryDx=0;entryDy=0;strokeWidth=2;dashed=1;strokeColor=#E6E6E6;fontColor=#E6E6E6;" parent="1" source="fa2TgRjNBBgpzOrha1pa-18" target="fa2TgRjNBBgpzOrha1pa-10" edge="1">
          <mxGeometry relative="1" as="geometry" />
        </mxCell>
        <mxCell id="fa2TgRjNBBgpzOrha1pa-18" value="&lt;font style=&quot;font-size: 14px;&quot;&gt;Feed&lt;br style=&quot;font-size: 14px;&quot;&gt;Assembler/Builder/Factory&lt;br style=&quot;font-size: 14px;&quot;&gt;&lt;/font&gt;" style="rounded=0;whiteSpace=wrap;html=1;fillColor=none;strokeColor=#E6E6E6;strokeWidth=4;fontColor=#E6E6E6;fontSize=14;" parent="1" vertex="1">
          <mxGeometry x="1221" y="98.5" width="200" height="80" as="geometry" />
        </mxCell>
        <mxCell id="kslnaKKYkAR8ZkGTqqHD-9" style="edgeStyle=orthogonalEdgeStyle;rounded=0;orthogonalLoop=1;jettySize=auto;html=1;entryX=0.5;entryY=0;entryDx=0;entryDy=0;strokeColor=#1EA3FC;strokeWidth=2;" parent="1" source="8nE0R6XnKWqMKPDeoMGo-1" target="kslnaKKYkAR8ZkGTqqHD-6" edge="1">
          <mxGeometry relative="1" as="geometry" />
        </mxCell>
        <mxCell id="8nE0R6XnKWqMKPDeoMGo-1" value="&lt;font style=&quot;font-size: 16px;&quot;&gt;FeedItemsMapper&lt;/font&gt;" style="rounded=0;whiteSpace=wrap;html=1;fillColor=none;strokeColor=#1EA3FC;strokeWidth=4;fontColor=#1EA3FC;fontSize=16;" parent="1" vertex="1">
          <mxGeometry x="172" y="257" width="189" height="60" as="geometry" />
        </mxCell>
        <mxCell id="kslnaKKYkAR8ZkGTqqHD-2" style="edgeStyle=orthogonalEdgeStyle;rounded=0;orthogonalLoop=1;jettySize=auto;html=1;exitX=0.5;exitY=1;exitDx=0;exitDy=0;strokeColor=#1EA3FC;strokeWidth=2;" parent="1" source="8nE0R6XnKWqMKPDeoMGo-2" edge="1">
          <mxGeometry relative="1" as="geometry">
            <mxPoint x="504" y="442" as="targetPoint" />
            <mxPoint x="504" y="317" as="sourcePoint" />
          </mxGeometry>
        </mxCell>
        <mxCell id="kslnaKKYkAR8ZkGTqqHD-8" style="edgeStyle=orthogonalEdgeStyle;rounded=0;orthogonalLoop=1;jettySize=auto;html=1;strokeColor=#1EA3FC;strokeWidth=2;" parent="1" source="8nE0R6XnKWqMKPDeoMGo-2" edge="1">
          <mxGeometry relative="1" as="geometry">
            <mxPoint x="363.41176470588243" y="277.5" as="targetPoint" />
          </mxGeometry>
        </mxCell>
        <mxCell id="kslnaKKYkAR8ZkGTqqHD-14" style="edgeStyle=orthogonalEdgeStyle;rounded=0;orthogonalLoop=1;jettySize=auto;html=1;exitX=0.25;exitY=1;exitDx=0;exitDy=0;entryX=1;entryY=0.5;entryDx=0;entryDy=0;strokeColor=#1EA3FC;strokeWidth=2;" parent="1" source="8nE0R6XnKWqMKPDeoMGo-2" target="kslnaKKYkAR8ZkGTqqHD-6" edge="1">
          <mxGeometry relative="1" as="geometry" />
        </mxCell>
        <mxCell id="iK6Vckgqgcv6s7LHoRTM-34" style="edgeStyle=orthogonalEdgeStyle;rounded=0;orthogonalLoop=1;jettySize=auto;html=1;exitX=1;exitY=0.25;exitDx=0;exitDy=0;entryX=0.25;entryY=0;entryDx=0;entryDy=0;strokeWidth=2;strokeColor=#1EA3FC;" parent="1" source="8nE0R6XnKWqMKPDeoMGo-2" target="kslnaKKYkAR8ZkGTqqHD-33" edge="1">
          <mxGeometry relative="1" as="geometry">
            <Array as="points">
              <mxPoint x="881" y="268" />
              <mxPoint x="881" y="515" />
              <mxPoint x="959" y="515" />
            </Array>
          </mxGeometry>
        </mxCell>
        <mxCell id="8nE0R6XnKWqMKPDeoMGo-2" value="&lt;font style=&quot;font-size: 16px;&quot;&gt;RemoteFeedLoader&lt;/font&gt;" style="rounded=0;whiteSpace=wrap;html=1;fillColor=none;strokeColor=#1EA3FC;strokeWidth=4;fontColor=#1EA3FC;fontSize=16;" parent="1" vertex="1">
          <mxGeometry x="412" y="258" width="184" height="39" as="geometry" />
        </mxCell>
        <mxCell id="8nE0R6XnKWqMKPDeoMGo-3" value="&lt;font style=&quot;font-size: 16px;&quot;&gt;&amp;lt;HTTPClient&amp;gt;&lt;/font&gt;" style="rounded=0;whiteSpace=wrap;html=1;fillColor=none;strokeColor=#1EA3FC;strokeWidth=4;fontColor=#1EA3FC;fontSize=16;" parent="1" vertex="1">
          <mxGeometry x="407" y="446" width="189" height="39" as="geometry" />
        </mxCell>
        <mxCell id="8nE0R6XnKWqMKPDeoMGo-4" value="&lt;font style=&quot;font-size: 14px;&quot;&gt;Feed&lt;br style=&quot;font-size: 14px;&quot;&gt;Backend&lt;/font&gt;" style="ellipse;shape=cloud;whiteSpace=wrap;html=1;fillColor=#1ea3fc;fontColor=#000000;strokeColor=#001DBC;fontSize=14;" parent="1" vertex="1">
          <mxGeometry x="199" y="533" width="120" height="80" as="geometry" />
        </mxCell>
        <mxCell id="8nE0R6XnKWqMKPDeoMGo-12" style="edgeStyle=orthogonalEdgeStyle;rounded=0;orthogonalLoop=1;jettySize=auto;html=1;entryX=0.567;entryY=0.163;entryDx=0;entryDy=0;entryPerimeter=0;strokeWidth=2;strokeColor=#1EA3FC;endArrow=baseDash;endFill=0;" parent="1" source="8nE0R6XnKWqMKPDeoMGo-8" target="8nE0R6XnKWqMKPDeoMGo-4" edge="1">
          <mxGeometry relative="1" as="geometry" />
        </mxCell>
        <mxCell id="kslnaKKYkAR8ZkGTqqHD-16" style="edgeStyle=orthogonalEdgeStyle;rounded=0;orthogonalLoop=1;jettySize=auto;html=1;exitX=1;exitY=0.5;exitDx=0;exitDy=0;entryX=0;entryY=0.5;entryDx=0;entryDy=0;strokeWidth=2;endArrow=block;endFill=0;dashed=1;strokeColor=#1EA3FC;" parent="1" source="8nE0R6XnKWqMKPDeoMGo-8" target="8nE0R6XnKWqMKPDeoMGo-3" edge="1">
          <mxGeometry relative="1" as="geometry" />
        </mxCell>
        <mxCell id="8nE0R6XnKWqMKPDeoMGo-8" value="&lt;span style=&quot;font-family: Helvetica; font-size: 16px; font-style: normal; font-variant-ligatures: normal; font-variant-caps: normal; font-weight: 400; letter-spacing: normal; orphans: 2; text-align: center; text-indent: 0px; text-transform: none; widows: 2; word-spacing: 0px; -webkit-text-stroke-width: 0px; background-color: rgb(251, 251, 251); text-decoration-thickness: initial; text-decoration-style: initial; text-decoration-color: initial; float: none; display: inline !important;&quot;&gt;URLSession&lt;br&gt;HTTPClient&lt;br&gt;&lt;/span&gt;" style="rounded=0;whiteSpace=wrap;html=1;fillColor=none;strokeColor=#1EA3FC;strokeWidth=4;fontColor=#1EA3FC;" parent="1" vertex="1">
          <mxGeometry x="172" y="436" width="189" height="60" as="geometry" />
        </mxCell>
        <mxCell id="8nE0R6XnKWqMKPDeoMGo-17" value="" style="rounded=0;whiteSpace=wrap;html=1;fillColor=none;strokeWidth=4;strokeColor=#1EA3FC;" parent="1" vertex="1">
          <mxGeometry x="120" y="220.5" width="531" height="299" as="geometry" />
        </mxCell>
        <mxCell id="8nE0R6XnKWqMKPDeoMGo-18" value="Feed API module" style="text;html=1;strokeColor=none;fillColor=none;align=center;verticalAlign=middle;whiteSpace=wrap;rounded=0;strokeWidth=0;fontColor=#006EAF;fontStyle=0;fontSize=16;" parent="1" vertex="1">
          <mxGeometry x="131" y="188" width="127" height="30" as="geometry" />
        </mxCell>
        <mxCell id="kslnaKKYkAR8ZkGTqqHD-4" value="&lt;font style=&quot;font-size: 14px;&quot;&gt;Internal&lt;/font&gt;" style="text;html=1;strokeColor=none;fillColor=none;align=center;verticalAlign=middle;whiteSpace=wrap;rounded=0;labelPosition=center;verticalLabelPosition=middle;fontColor=#1EA3FC;" parent="1" vertex="1">
          <mxGeometry x="301" y="257" width="60" height="30" as="geometry" />
        </mxCell>
        <mxCell id="kslnaKKYkAR8ZkGTqqHD-6" value="RemoteFeedItem" style="rounded=0;whiteSpace=wrap;html=1;fillColor=none;strokeColor=#1EA3FC;strokeWidth=4;fontColor=#1EA3FC;fontSize=16;" parent="1" vertex="1">
          <mxGeometry x="171" y="347" width="189" height="60" as="geometry" />
        </mxCell>
        <mxCell id="kslnaKKYkAR8ZkGTqqHD-7" value="&lt;font style=&quot;font-size: 14px;&quot;&gt;Internal&lt;/font&gt;" style="text;html=1;strokeColor=none;fillColor=none;align=center;verticalAlign=middle;whiteSpace=wrap;rounded=0;labelPosition=center;verticalLabelPosition=middle;fontColor=#1EA3FC;" parent="1" vertex="1">
          <mxGeometry x="300" y="347" width="60" height="30" as="geometry" />
        </mxCell>
        <mxCell id="kslnaKKYkAR8ZkGTqqHD-19" value="&lt;font style=&quot;font-size: 14px;&quot;&gt;LocalFeedImage&lt;/font&gt;" style="rounded=0;whiteSpace=wrap;html=1;fillColor=none;strokeColor=#D70C70;strokeWidth=4;fontColor=#D70C70;fontSize=14;" parent="1" vertex="1">
          <mxGeometry x="1131" y="275" width="159" height="39" as="geometry" />
        </mxCell>
        <mxCell id="kslnaKKYkAR8ZkGTqqHD-22" style="edgeStyle=orthogonalEdgeStyle;rounded=0;orthogonalLoop=1;jettySize=auto;html=1;entryX=0.5;entryY=1;entryDx=0;entryDy=0;strokeWidth=2;strokeColor=#D70C70;" parent="1" source="kslnaKKYkAR8ZkGTqqHD-20" target="kslnaKKYkAR8ZkGTqqHD-19" edge="1">
          <mxGeometry relative="1" as="geometry" />
        </mxCell>
        <mxCell id="kslnaKKYkAR8ZkGTqqHD-20" value="&lt;font style=&quot;font-size: 14px;&quot;&gt;&amp;lt;FeedStore&amp;gt;&lt;/font&gt;" style="rounded=0;whiteSpace=wrap;html=1;fillColor=none;strokeColor=#D70C70;strokeWidth=4;fontColor=#D70C70;fontSize=14;" parent="1" vertex="1">
          <mxGeometry x="1131" y="365" width="159" height="39" as="geometry" />
        </mxCell>
        <mxCell id="kslnaKKYkAR8ZkGTqqHD-25" value="Feed Cache module" style="text;html=1;strokeColor=none;fillColor=none;align=center;verticalAlign=middle;whiteSpace=wrap;rounded=0;strokeWidth=0;fontColor=#D70C70;fontStyle=0;fontSize=16;" parent="1" vertex="1">
          <mxGeometry x="1394" y="203" width="158" height="30" as="geometry" />
        </mxCell>
        <mxCell id="kslnaKKYkAR8ZkGTqqHD-28" style="edgeStyle=orthogonalEdgeStyle;rounded=0;orthogonalLoop=1;jettySize=auto;html=1;exitX=0;exitY=0.75;exitDx=0;exitDy=0;strokeWidth=2;strokeColor=#E6E6E6;dashed=1;fontColor=#E6E6E6;entryX=0.925;entryY=-0.109;entryDx=0;entryDy=0;entryPerimeter=0;" parent="1" target="fa2TgRjNBBgpzOrha1pa-6" edge="1">
          <mxGeometry relative="1" as="geometry">
            <mxPoint x="1221" y="169" as="sourcePoint" />
            <mxPoint x="1065.029" y="339.99800000000005" as="targetPoint" />
            <Array as="points">
              <mxPoint x="1221" y="170" />
              <mxPoint x="1093" y="170" />
              <mxPoint x="1093" y="334" />
              <mxPoint x="1064" y="334" />
            </Array>
          </mxGeometry>
        </mxCell>
        <mxCell id="kslnaKKYkAR8ZkGTqqHD-29" value="&lt;font style=&quot;font-size: 14px;&quot;&gt;AnyHTTPClient&lt;br&gt;Implementation&lt;br&gt;&lt;/font&gt;" style="rounded=0;whiteSpace=wrap;html=1;fillColor=none;strokeColor=#E6E6E6;strokeWidth=4;fontSize=14;gradientColor=#b3b3b3;fontColor=#E6E6E6;" parent="1" vertex="1">
          <mxGeometry x="424" y="554" width="140" height="44" as="geometry" />
        </mxCell>
        <mxCell id="kslnaKKYkAR8ZkGTqqHD-33" value="&lt;font style=&quot;font-size: 14px;&quot;&gt;FeedImagee&lt;/font&gt;" style="rounded=0;whiteSpace=wrap;html=1;fillColor=none;strokeColor=#FF0000;strokeWidth=4;fontSize=14;fontColor=#FF0000;" parent="1" vertex="1">
          <mxGeometry x="929" y="596.5" width="120" height="39" as="geometry" />
        </mxCell>
        <mxCell id="kslnaKKYkAR8ZkGTqqHD-35" value="" style="rounded=0;whiteSpace=wrap;html=1;fillColor=none;strokeWidth=4;strokeColor=#ff0000;" parent="1" vertex="1">
          <mxGeometry x="678" y="562" width="398" height="102" as="geometry" />
        </mxCell>
        <mxCell id="kslnaKKYkAR8ZkGTqqHD-36" value="Feed Feature module" style="text;html=1;strokeColor=none;fillColor=none;align=center;verticalAlign=middle;whiteSpace=wrap;rounded=0;strokeWidth=0;fontColor=#FF0000;fontStyle=0;fontSize=16;" parent="1" vertex="1">
          <mxGeometry x="677" y="662.35" width="158" height="30" as="geometry" />
        </mxCell>
        <mxCell id="JNZvR-7SCy1b5JrwN-PK-1" style="edgeStyle=orthogonalEdgeStyle;rounded=0;orthogonalLoop=1;jettySize=auto;html=1;entryX=1;entryY=0.25;entryDx=0;entryDy=0;strokeWidth=2;strokeColor=#D70C70;" parent="1" source="kslnaKKYkAR8ZkGTqqHD-37" target="kslnaKKYkAR8ZkGTqqHD-19" edge="1">
          <mxGeometry relative="1" as="geometry">
            <mxPoint x="1297" y="279" as="targetPoint" />
            <Array as="points">
              <mxPoint x="1425" y="284" />
              <mxPoint x="1298" y="284" />
            </Array>
          </mxGeometry>
        </mxCell>
        <mxCell id="JNZvR-7SCy1b5JrwN-PK-2" style="edgeStyle=orthogonalEdgeStyle;rounded=0;orthogonalLoop=1;jettySize=auto;html=1;exitX=0.25;exitY=0;exitDx=0;exitDy=0;entryX=1;entryY=0.5;entryDx=0;entryDy=0;strokeWidth=2;strokeColor=#D70C70;endArrow=block;endFill=0;dashed=1;" parent="1" source="kslnaKKYkAR8ZkGTqqHD-37" target="kslnaKKYkAR8ZkGTqqHD-20" edge="1">
          <mxGeometry relative="1" as="geometry" />
        </mxCell>
        <mxCell id="kslnaKKYkAR8ZkGTqqHD-37" value="&lt;font style=&quot;font-size: 14px;&quot;&gt;CoreDataFeedStore&lt;br&gt;&lt;/font&gt;" style="rounded=0;whiteSpace=wrap;html=1;fillColor=none;strokeColor=#D70C70;strokeWidth=4;fontSize=14;gradientColor=#b3b3b3;fontColor=#D70C70;" parent="1" vertex="1">
          <mxGeometry x="1345" y="457" width="159" height="39" as="geometry" />
        </mxCell>
        <mxCell id="kslnaKKYkAR8ZkGTqqHD-48" style="edgeStyle=orthogonalEdgeStyle;rounded=0;orthogonalLoop=1;jettySize=auto;html=1;entryX=0.461;entryY=1.163;entryDx=0;entryDy=0;entryPerimeter=0;strokeWidth=2;strokeColor=#E6E6E6;endArrow=block;endFill=0;dashed=1;" parent="1" source="kslnaKKYkAR8ZkGTqqHD-29" target="8nE0R6XnKWqMKPDeoMGo-3" edge="1">
          <mxGeometry relative="1" as="geometry" />
        </mxCell>
        <mxCell id="KoEfR0-JcFAQGKNgfmnl-8" value="" style="rounded=0;whiteSpace=wrap;html=1;fillColor=none;strokeWidth=4;strokeColor=#D70C70;" parent="1" vertex="1">
          <mxGeometry x="894" y="235.5" width="660" height="203.5" as="geometry" />
        </mxCell>
        <mxCell id="KoEfR0-JcFAQGKNgfmnl-10" value="&lt;font style=&quot;font-size: 14px;&quot;&gt;FeedCachePolicy&lt;/font&gt;" style="rounded=0;whiteSpace=wrap;html=1;fillColor=none;strokeColor=#D70C70;strokeWidth=4;fontColor=#D70C70;fontSize=14;" parent="1" vertex="1">
          <mxGeometry x="917" y="264" width="159" height="60" as="geometry" />
        </mxCell>
        <mxCell id="KoEfR0-JcFAQGKNgfmnl-12" value="&lt;font style=&quot;font-size: 14px;&quot;&gt;Internal&lt;/font&gt;" style="text;html=1;strokeColor=none;fillColor=none;align=center;verticalAlign=middle;whiteSpace=wrap;rounded=0;labelPosition=center;verticalLabelPosition=middle;fontColor=#D70C70;" parent="1" vertex="1">
          <mxGeometry x="1016" y="267" width="60" height="30" as="geometry" />
        </mxCell>
        <mxCell id="KoEfR0-JcFAQGKNgfmnl-16" style="edgeStyle=orthogonalEdgeStyle;rounded=0;orthogonalLoop=1;jettySize=auto;html=1;strokeWidth=2;strokeColor=#E6E6E6;endArrow=block;endFill=0;dashed=1;" parent="1" source="KoEfR0-JcFAQGKNgfmnl-14" edge="1">
          <mxGeometry relative="1" as="geometry">
            <mxPoint x="1208.5" y="411" as="targetPoint" />
          </mxGeometry>
        </mxCell>
        <mxCell id="KoEfR0-JcFAQGKNgfmnl-19" style="edgeStyle=orthogonalEdgeStyle;rounded=0;orthogonalLoop=1;jettySize=auto;html=1;entryX=1;entryY=0.75;entryDx=0;entryDy=0;strokeWidth=2;strokeColor=#D70C70;" parent="1" source="KoEfR0-JcFAQGKNgfmnl-14" target="kslnaKKYkAR8ZkGTqqHD-19" edge="1">
          <mxGeometry relative="1" as="geometry">
            <Array as="points">
              <mxPoint x="1310" y="477" />
              <mxPoint x="1310" y="304" />
            </Array>
          </mxGeometry>
        </mxCell>
        <mxCell id="KoEfR0-JcFAQGKNgfmnl-14" value="&lt;font style=&quot;font-size: 14px;&quot;&gt;CodableFeedStore&lt;/font&gt;" style="rounded=0;whiteSpace=wrap;html=1;fillColor=none;strokeColor=#D70C70;strokeWidth=4;fontColor=#D70C70;fontSize=14;" parent="1" vertex="1">
          <mxGeometry x="1129" y="457" width="159" height="39" as="geometry" />
        </mxCell>
        <mxCell id="KoEfR0-JcFAQGKNgfmnl-17" value="&lt;div style=&quot;font-size: 20px;&quot;&gt;&lt;span style=&quot;background-color: initial; font-size: 20px;&quot;&gt;File&lt;/span&gt;&lt;/div&gt;&lt;div style=&quot;font-size: 20px;&quot;&gt;&lt;span style=&quot;background-color: initial; font-size: 20px;&quot;&gt;System&lt;/span&gt;&lt;/div&gt;" style="sketch=0;aspect=fixed;pointerEvents=1;shadow=0;dashed=0;html=1;strokeColor=none;labelPosition=center;verticalLabelPosition=middle;verticalAlign=middle;align=center;fillColor=#D70C70;shape=mxgraph.mscae.enterprise.folder;fontSize=20;" parent="1" vertex="1">
          <mxGeometry x="1148.5" y="548.4" width="120" height="103.2" as="geometry" />
        </mxCell>
        <mxCell id="KoEfR0-JcFAQGKNgfmnl-18" style="edgeStyle=orthogonalEdgeStyle;rounded=0;orthogonalLoop=1;jettySize=auto;html=1;entryX=0.496;entryY=0.083;entryDx=0;entryDy=0;entryPerimeter=0;strokeWidth=2;strokeColor=#D70C70;" parent="1" source="KoEfR0-JcFAQGKNgfmnl-14" target="KoEfR0-JcFAQGKNgfmnl-17" edge="1">
          <mxGeometry relative="1" as="geometry" />
        </mxCell>
        <mxCell id="JNZvR-7SCy1b5JrwN-PK-3" value="&lt;font style=&quot;font-size: 18px;&quot;&gt;Core&lt;br&gt;Data&lt;/font&gt;" style="shape=cylinder3;whiteSpace=wrap;html=1;boundedLbl=1;backgroundOutline=1;size=15;strokeColor=#000000;gradientColor=none;fillColor=#D70C70;gradientDirection=north;strokeWidth=1;" parent="1" vertex="1">
          <mxGeometry x="1394.5" y="566" width="60" height="80" as="geometry" />
        </mxCell>
        <mxCell id="JNZvR-7SCy1b5JrwN-PK-4" style="edgeStyle=orthogonalEdgeStyle;rounded=0;orthogonalLoop=1;jettySize=auto;html=1;entryX=0.5;entryY=0;entryDx=0;entryDy=0;entryPerimeter=0;strokeWidth=2;strokeColor=#D70C70;" parent="1" source="kslnaKKYkAR8ZkGTqqHD-37" target="JNZvR-7SCy1b5JrwN-PK-3" edge="1">
          <mxGeometry relative="1" as="geometry" />
        </mxCell>
        <mxCell id="BpPRSDlrW4VKUzsqnZfC-7" value="" style="rounded=0;whiteSpace=wrap;html=1;strokeWidth=4;fillColor=none;strokeColor=#5CC93B;fontSize=14;fontColor=#5CC93B;align=center;labelPosition=center;verticalLabelPosition=middle;verticalAlign=middle;horizontal=1;" parent="1" vertex="1">
          <mxGeometry x="546.5" y="1122" width="886.5" height="109.5" as="geometry" />
        </mxCell>
        <mxCell id="BpPRSDlrW4VKUzsqnZfC-8" value="&lt;span style=&quot;font-size: 14px;&quot;&gt;&lt;font style=&quot;font-size: 14px;&quot;&gt;UITableView&lt;/font&gt;&lt;/span&gt;" style="rounded=0;whiteSpace=wrap;html=1;strokeWidth=4;fillColor=none;strokeColor=#5CC93B;fontSize=14;fontColor=#5CC93B;" parent="1" vertex="1">
          <mxGeometry x="957" y="1148" width="140" height="44" as="geometry" />
        </mxCell>
        <mxCell id="BpPRSDlrW4VKUzsqnZfC-12" value="UIKit" style="text;html=1;strokeColor=none;fillColor=none;align=center;verticalAlign=middle;whiteSpace=wrap;rounded=0;labelPosition=center;verticalLabelPosition=middle;fontColor=#5CC93B;fontSize=14;" parent="1" vertex="1">
          <mxGeometry x="540" y="1122" width="60" height="30" as="geometry" />
        </mxCell>
        <mxCell id="BpPRSDlrW4VKUzsqnZfC-4" value="" style="rounded=0;whiteSpace=wrap;html=1;fillColor=none;strokeColor=#C49BF9;strokeWidth=4;fontSize=14;fontColor=#C49BF9;" parent="1" vertex="1">
          <mxGeometry x="399.25" y="932" width="1181" height="163" as="geometry" />
        </mxCell>
        <mxCell id="5NVDTo8bunI5TLv0N01t-1" value="&lt;span style=&quot;font-size: 14px;&quot;&gt;&lt;font style=&quot;font-size: 14px;&quot;&gt;UIRefreshControl&lt;/font&gt;&lt;/span&gt;" style="rounded=0;whiteSpace=wrap;html=1;strokeWidth=4;fillColor=none;strokeColor=#5CC93B;fontSize=14;fontColor=#5CC93B;" parent="1" vertex="1">
          <mxGeometry x="575" y="1151" width="160" height="45" as="geometry" />
        </mxCell>
        <mxCell id="5NVDTo8bunI5TLv0N01t-2" value="&lt;span style=&quot;font-size: 14px;&quot;&gt;&lt;font style=&quot;font-size: 14px;&quot;&gt;UITableViewCell&lt;/font&gt;&lt;/span&gt;" style="rounded=0;whiteSpace=wrap;html=1;strokeWidth=4;fillColor=none;strokeColor=#5CC93B;fontSize=14;fontColor=#5CC93B;" parent="1" vertex="1">
          <mxGeometry x="1115" y="1149" width="140" height="44" as="geometry" />
        </mxCell>
        <mxCell id="iK6Vckgqgcv6s7LHoRTM-28" style="edgeStyle=orthogonalEdgeStyle;rounded=0;orthogonalLoop=1;jettySize=auto;html=1;exitX=0.75;exitY=1;exitDx=0;exitDy=0;entryX=0.75;entryY=0;entryDx=0;entryDy=0;strokeWidth=2;strokeColor=#C49BF9;endArrow=block;endFill=0;" parent="1" source="5NVDTo8bunI5TLv0N01t-3" target="5NVDTo8bunI5TLv0N01t-2" edge="1">
          <mxGeometry relative="1" as="geometry" />
        </mxCell>
        <mxCell id="5NVDTo8bunI5TLv0N01t-3" value="&lt;font style=&quot;font-size: 14px;&quot;&gt;FeedImageCell&lt;/font&gt;" style="rounded=0;whiteSpace=wrap;html=1;fillColor=none;strokeColor=#C49BF9;strokeWidth=4;fontSize=14;fontColor=#C49BF9;" parent="1" vertex="1">
          <mxGeometry x="1112" y="1027" width="144" height="44" as="geometry" />
        </mxCell>
        <mxCell id="iK6Vckgqgcv6s7LHoRTM-26" style="edgeStyle=orthogonalEdgeStyle;rounded=0;orthogonalLoop=1;jettySize=auto;html=1;exitX=0.25;exitY=1;exitDx=0;exitDy=0;entryX=0;entryY=0.5;entryDx=0;entryDy=0;strokeWidth=2;strokeColor=#C49BF9;" parent="1" source="5NVDTo8bunI5TLv0N01t-7" target="5NVDTo8bunI5TLv0N01t-1" edge="1">
          <mxGeometry relative="1" as="geometry" />
        </mxCell>
        <mxCell id="wRX7bdEk1FUPvkicqvMD-31" style="edgeStyle=orthogonalEdgeStyle;rounded=0;orthogonalLoop=1;jettySize=auto;html=1;exitX=0.25;exitY=0;exitDx=0;exitDy=0;entryX=0.5;entryY=1;entryDx=0;entryDy=0;strokeWidth=2;strokeColor=#C49BF9;" edge="1" parent="1" source="5NVDTo8bunI5TLv0N01t-7" target="wRX7bdEk1FUPvkicqvMD-16">
          <mxGeometry relative="1" as="geometry">
            <Array as="points">
              <mxPoint x="468" y="910" />
              <mxPoint x="274" y="910" />
            </Array>
          </mxGeometry>
        </mxCell>
        <mxCell id="wRX7bdEk1FUPvkicqvMD-32" style="edgeStyle=orthogonalEdgeStyle;rounded=0;orthogonalLoop=1;jettySize=auto;html=1;entryX=0.5;entryY=1;entryDx=0;entryDy=0;strokeWidth=2;strokeColor=#C49BF9;dashed=1;endArrow=block;endFill=0;" edge="1" parent="1" source="5NVDTo8bunI5TLv0N01t-7" target="wRX7bdEk1FUPvkicqvMD-18">
          <mxGeometry relative="1" as="geometry" />
        </mxCell>
        <mxCell id="5NVDTo8bunI5TLv0N01t-7" value="&lt;font style=&quot;font-size: 14px;&quot;&gt;FeedRefreshViewController&lt;/font&gt;" style="rounded=0;whiteSpace=wrap;html=1;fillColor=none;strokeColor=#C49BF9;strokeWidth=4;fontSize=14;fontColor=#C49BF9;" parent="1" vertex="1">
          <mxGeometry x="428" y="1027" width="233.5" height="44" as="geometry" />
        </mxCell>
        <mxCell id="iK6Vckgqgcv6s7LHoRTM-13" style="edgeStyle=orthogonalEdgeStyle;rounded=0;orthogonalLoop=1;jettySize=auto;html=1;exitX=1;exitY=0.5;exitDx=0;exitDy=0;entryX=0;entryY=0.25;entryDx=0;entryDy=0;strokeWidth=2;strokeColor=#C49BF9;dashed=1;" parent="1" source="5NVDTo8bunI5TLv0N01t-8" target="iK6Vckgqgcv6s7LHoRTM-6" edge="1">
          <mxGeometry relative="1" as="geometry" />
        </mxCell>
        <mxCell id="iK6Vckgqgcv6s7LHoRTM-74" value="&lt;font color=&quot;#c49bf9&quot;&gt;&amp;lt;&amp;lt;creates&amp;gt;&amp;gt;&lt;/font&gt;" style="edgeLabel;html=1;align=center;verticalAlign=middle;resizable=0;points=[];" parent="iK6Vckgqgcv6s7LHoRTM-13" vertex="1" connectable="0">
          <mxGeometry x="-0.8692" y="1" relative="1" as="geometry">
            <mxPoint x="28" y="-2" as="offset" />
          </mxGeometry>
        </mxCell>
        <mxCell id="iK6Vckgqgcv6s7LHoRTM-63" style="edgeStyle=orthogonalEdgeStyle;rounded=0;orthogonalLoop=1;jettySize=auto;html=1;exitX=1;exitY=0.75;exitDx=0;exitDy=0;entryX=0.5;entryY=0;entryDx=0;entryDy=0;strokeWidth=2;strokeColor=#C49BF9;dashed=1;" parent="1" source="5NVDTo8bunI5TLv0N01t-8" target="fa2TgRjNBBgpzOrha1pa-2" edge="1">
          <mxGeometry relative="1" as="geometry" />
        </mxCell>
        <mxCell id="iK6Vckgqgcv6s7LHoRTM-64" style="edgeStyle=orthogonalEdgeStyle;rounded=0;orthogonalLoop=1;jettySize=auto;html=1;exitX=0;exitY=0.75;exitDx=0;exitDy=0;entryX=0.75;entryY=0;entryDx=0;entryDy=0;strokeWidth=2;strokeColor=#C49BF9;dashed=1;" parent="1" source="5NVDTo8bunI5TLv0N01t-8" target="5NVDTo8bunI5TLv0N01t-7" edge="1">
          <mxGeometry relative="1" as="geometry" />
        </mxCell>
        <mxCell id="iK6Vckgqgcv6s7LHoRTM-68" style="edgeStyle=orthogonalEdgeStyle;rounded=0;orthogonalLoop=1;jettySize=auto;html=1;exitX=0.25;exitY=0;exitDx=0;exitDy=0;entryX=0;entryY=0.75;entryDx=0;entryDy=0;strokeWidth=2;strokeColor=#C49BF9;dashed=1;" parent="1" source="5NVDTo8bunI5TLv0N01t-8" target="fa2TgRjNBBgpzOrha1pa-3" edge="1">
          <mxGeometry relative="1" as="geometry" />
        </mxCell>
        <mxCell id="wRX7bdEk1FUPvkicqvMD-29" style="edgeStyle=orthogonalEdgeStyle;rounded=0;orthogonalLoop=1;jettySize=auto;html=1;exitX=0;exitY=0.5;exitDx=0;exitDy=0;entryX=1;entryY=0.5;entryDx=0;entryDy=0;strokeWidth=2;strokeColor=#C49BF9;dashed=1;" edge="1" parent="1" source="5NVDTo8bunI5TLv0N01t-8" target="wRX7bdEk1FUPvkicqvMD-2">
          <mxGeometry relative="1" as="geometry">
            <Array as="points">
              <mxPoint x="404" y="959" />
              <mxPoint x="404" y="988" />
            </Array>
          </mxGeometry>
        </mxCell>
        <mxCell id="wRX7bdEk1FUPvkicqvMD-33" style="edgeStyle=orthogonalEdgeStyle;rounded=0;orthogonalLoop=1;jettySize=auto;html=1;exitX=0;exitY=0.5;exitDx=0;exitDy=0;entryX=1;entryY=0.5;entryDx=0;entryDy=0;strokeWidth=2;strokeColor=#C49BF9;dashed=1;" edge="1" parent="1" source="5NVDTo8bunI5TLv0N01t-8" target="wRX7bdEk1FUPvkicqvMD-3">
          <mxGeometry relative="1" as="geometry">
            <Array as="points">
              <mxPoint x="404" y="959" />
              <mxPoint x="404" y="1051" />
            </Array>
          </mxGeometry>
        </mxCell>
        <mxCell id="wRX7bdEk1FUPvkicqvMD-34" style="edgeStyle=orthogonalEdgeStyle;rounded=0;orthogonalLoop=1;jettySize=auto;html=1;exitX=0.25;exitY=0;exitDx=0;exitDy=0;entryX=1;entryY=0.75;entryDx=0;entryDy=0;strokeWidth=2;strokeColor=#C49BF9;dashed=1;" edge="1" parent="1" source="5NVDTo8bunI5TLv0N01t-8" target="iK6Vckgqgcv6s7LHoRTM-41">
          <mxGeometry relative="1" as="geometry" />
        </mxCell>
        <mxCell id="wRX7bdEk1FUPvkicqvMD-35" style="edgeStyle=orthogonalEdgeStyle;rounded=0;orthogonalLoop=1;jettySize=auto;html=1;exitX=0.25;exitY=0;exitDx=0;exitDy=0;entryX=1;entryY=0.5;entryDx=0;entryDy=0;strokeWidth=2;strokeColor=#C49BF9;dashed=1;" edge="1" parent="1" source="5NVDTo8bunI5TLv0N01t-8" target="wRX7bdEk1FUPvkicqvMD-18">
          <mxGeometry relative="1" as="geometry" />
        </mxCell>
        <mxCell id="wRX7bdEk1FUPvkicqvMD-36" style="edgeStyle=orthogonalEdgeStyle;rounded=0;orthogonalLoop=1;jettySize=auto;html=1;exitX=0.5;exitY=0;exitDx=0;exitDy=0;entryX=0.5;entryY=1;entryDx=0;entryDy=0;strokeWidth=2;strokeColor=#C49BF9;endArrow=block;endFill=0;dashed=1;" edge="1" parent="1" source="5NVDTo8bunI5TLv0N01t-8" target="wRX7bdEk1FUPvkicqvMD-20">
          <mxGeometry relative="1" as="geometry" />
        </mxCell>
        <mxCell id="wRX7bdEk1FUPvkicqvMD-38" style="edgeStyle=orthogonalEdgeStyle;rounded=0;orthogonalLoop=1;jettySize=auto;html=1;exitX=1;exitY=0.25;exitDx=0;exitDy=0;entryX=0;entryY=0.25;entryDx=0;entryDy=0;strokeWidth=2;strokeColor=#C49BF9;dashed=1;" edge="1" parent="1" source="5NVDTo8bunI5TLv0N01t-8" target="iK6Vckgqgcv6s7LHoRTM-51">
          <mxGeometry relative="1" as="geometry" />
        </mxCell>
        <mxCell id="wRX7bdEk1FUPvkicqvMD-39" style="edgeStyle=orthogonalEdgeStyle;rounded=0;orthogonalLoop=1;jettySize=auto;html=1;exitX=1;exitY=0.25;exitDx=0;exitDy=0;entryX=0.5;entryY=1;entryDx=0;entryDy=0;strokeWidth=2;strokeColor=#C49BF9;dashed=1;" edge="1" parent="1" source="5NVDTo8bunI5TLv0N01t-8" target="kslnaKKYkAR8ZkGTqqHD-33">
          <mxGeometry relative="1" as="geometry">
            <Array as="points">
              <mxPoint x="930" y="948" />
              <mxPoint x="930" y="698" />
              <mxPoint x="989" y="698" />
            </Array>
          </mxGeometry>
        </mxCell>
        <mxCell id="wRX7bdEk1FUPvkicqvMD-40" style="edgeStyle=orthogonalEdgeStyle;rounded=0;orthogonalLoop=1;jettySize=auto;html=1;exitX=1;exitY=0.25;exitDx=0;exitDy=0;entryX=0.5;entryY=1;entryDx=0;entryDy=0;strokeWidth=2;strokeColor=#C49BF9;dashed=1;" edge="1" parent="1" source="5NVDTo8bunI5TLv0N01t-8" target="wRX7bdEk1FUPvkicqvMD-14">
          <mxGeometry relative="1" as="geometry">
            <Array as="points">
              <mxPoint x="979" y="948" />
              <mxPoint x="979" y="910" />
              <mxPoint x="1485" y="910" />
            </Array>
          </mxGeometry>
        </mxCell>
        <mxCell id="5NVDTo8bunI5TLv0N01t-8" value="FeedUIComposer" style="rounded=0;whiteSpace=wrap;html=1;fillColor=none;strokeColor=#C49BF9;strokeWidth=4;fontSize=14;fontColor=#C49BF9;" parent="1" vertex="1">
          <mxGeometry x="650" y="937.25" width="151.25" height="44" as="geometry" />
        </mxCell>
        <mxCell id="iK6Vckgqgcv6s7LHoRTM-7" style="edgeStyle=orthogonalEdgeStyle;rounded=0;orthogonalLoop=1;jettySize=auto;html=1;exitX=0.5;exitY=1;exitDx=0;exitDy=0;entryX=0.5;entryY=0;entryDx=0;entryDy=0;strokeWidth=2;strokeColor=#C49BF9;" parent="1" source="iK6Vckgqgcv6s7LHoRTM-6" target="5NVDTo8bunI5TLv0N01t-3" edge="1">
          <mxGeometry relative="1" as="geometry" />
        </mxCell>
        <mxCell id="iK6Vckgqgcv6s7LHoRTM-60" style="edgeStyle=orthogonalEdgeStyle;rounded=0;orthogonalLoop=1;jettySize=auto;html=1;exitX=1;exitY=0.5;exitDx=0;exitDy=0;entryX=0.5;entryY=0;entryDx=0;entryDy=0;strokeWidth=2;strokeColor=#C49BF9;" parent="1" source="iK6Vckgqgcv6s7LHoRTM-6" target="iK6Vckgqgcv6s7LHoRTM-59" edge="1">
          <mxGeometry relative="1" as="geometry" />
        </mxCell>
        <mxCell id="wRX7bdEk1FUPvkicqvMD-41" style="edgeStyle=orthogonalEdgeStyle;rounded=0;orthogonalLoop=1;jettySize=auto;html=1;exitX=0.25;exitY=0;exitDx=0;exitDy=0;entryX=0.25;entryY=1;entryDx=0;entryDy=0;strokeWidth=2;strokeColor=#C49BF9;" edge="1" parent="1" source="iK6Vckgqgcv6s7LHoRTM-6" target="wRX7bdEk1FUPvkicqvMD-12">
          <mxGeometry relative="1" as="geometry" />
        </mxCell>
        <mxCell id="wRX7bdEk1FUPvkicqvMD-44" style="edgeStyle=orthogonalEdgeStyle;rounded=0;orthogonalLoop=1;jettySize=auto;html=1;exitX=0.5;exitY=0;exitDx=0;exitDy=0;entryX=0.25;entryY=1;entryDx=0;entryDy=0;strokeWidth=2;strokeColor=#C49BF9;endArrow=block;endFill=0;dashed=1;" edge="1" parent="1" source="iK6Vckgqgcv6s7LHoRTM-6" target="wRX7bdEk1FUPvkicqvMD-14">
          <mxGeometry relative="1" as="geometry">
            <Array as="points">
              <mxPoint x="1184" y="933" />
              <mxPoint x="1426" y="933" />
            </Array>
          </mxGeometry>
        </mxCell>
        <mxCell id="iK6Vckgqgcv6s7LHoRTM-6" value="&lt;font style=&quot;font-size: 14px;&quot;&gt;FeedImageCellController&lt;/font&gt;" style="rounded=0;whiteSpace=wrap;html=1;fillColor=none;strokeColor=#C49BF9;strokeWidth=4;fontSize=14;fontColor=#C49BF9;" parent="1" vertex="1">
          <mxGeometry x="1073.25" y="963" width="221.5" height="44" as="geometry" />
        </mxCell>
        <mxCell id="iK6Vckgqgcv6s7LHoRTM-30" value="&lt;font color=&quot;#c49bf9&quot; style=&quot;font-size: 14px;&quot;&gt;Internal&lt;/font&gt;" style="text;html=1;strokeColor=none;fillColor=none;align=center;verticalAlign=middle;whiteSpace=wrap;rounded=0;labelPosition=center;verticalLabelPosition=middle;fontColor=#1EA3FC;" parent="1" vertex="1">
          <mxGeometry x="609" y="1021" width="60" height="30" as="geometry" />
        </mxCell>
        <mxCell id="iK6Vckgqgcv6s7LHoRTM-31" value="&lt;font color=&quot;#c49bf9&quot; style=&quot;font-size: 14px;&quot;&gt;Internal&lt;/font&gt;" style="text;html=1;strokeColor=none;fillColor=none;align=center;verticalAlign=middle;whiteSpace=wrap;rounded=0;labelPosition=center;verticalLabelPosition=middle;fontColor=#1EA3FC;" parent="1" vertex="1">
          <mxGeometry x="1234.75" y="956" width="60" height="30" as="geometry" />
        </mxCell>
        <mxCell id="iK6Vckgqgcv6s7LHoRTM-35" value="&lt;font color=&quot;#c49bf9&quot;&gt;Feed iOS UI module&lt;/font&gt;" style="text;html=1;strokeColor=none;fillColor=none;align=center;verticalAlign=middle;whiteSpace=wrap;rounded=0;strokeWidth=0;fontColor=#006EAF;fontStyle=0;fontSize=16;" parent="1" vertex="1">
          <mxGeometry x="1406.25" y="934" width="165" height="30" as="geometry" />
        </mxCell>
        <mxCell id="iK6Vckgqgcv6s7LHoRTM-39" value="" style="rounded=0;whiteSpace=wrap;html=1;fillColor=none;strokeColor=#67AB9F;strokeWidth=4;fontSize=14;fontColor=#67AB9F;" parent="1" vertex="1">
          <mxGeometry x="139" y="708" width="1485" height="197" as="geometry" />
        </mxCell>
        <mxCell id="wRX7bdEk1FUPvkicqvMD-23" style="edgeStyle=orthogonalEdgeStyle;rounded=0;orthogonalLoop=1;jettySize=auto;html=1;exitX=0.5;exitY=1;exitDx=0;exitDy=0;strokeWidth=2;strokeColor=#67AB9F;" edge="1" parent="1" source="iK6Vckgqgcv6s7LHoRTM-41" target="wRX7bdEk1FUPvkicqvMD-18">
          <mxGeometry relative="1" as="geometry" />
        </mxCell>
        <mxCell id="wRX7bdEk1FUPvkicqvMD-24" style="edgeStyle=orthogonalEdgeStyle;rounded=0;orthogonalLoop=1;jettySize=auto;html=1;exitX=1;exitY=0.5;exitDx=0;exitDy=0;entryX=0.5;entryY=0;entryDx=0;entryDy=0;strokeWidth=2;strokeColor=#67AB9F;" edge="1" parent="1" source="iK6Vckgqgcv6s7LHoRTM-41" target="wRX7bdEk1FUPvkicqvMD-20">
          <mxGeometry relative="1" as="geometry" />
        </mxCell>
        <mxCell id="wRX7bdEk1FUPvkicqvMD-25" style="edgeStyle=orthogonalEdgeStyle;rounded=0;orthogonalLoop=1;jettySize=auto;html=1;exitX=0;exitY=0.5;exitDx=0;exitDy=0;entryX=0.5;entryY=0;entryDx=0;entryDy=0;strokeWidth=2;strokeColor=#67AB9F;" edge="1" parent="1" source="iK6Vckgqgcv6s7LHoRTM-41" target="wRX7bdEk1FUPvkicqvMD-16">
          <mxGeometry relative="1" as="geometry" />
        </mxCell>
        <mxCell id="wRX7bdEk1FUPvkicqvMD-47" style="edgeStyle=orthogonalEdgeStyle;rounded=0;orthogonalLoop=1;jettySize=auto;html=1;exitX=0.5;exitY=0;exitDx=0;exitDy=0;entryX=0.25;entryY=1;entryDx=0;entryDy=0;strokeWidth=2;strokeColor=#67AB9F;" edge="1" parent="1" source="iK6Vckgqgcv6s7LHoRTM-41" target="kslnaKKYkAR8ZkGTqqHD-33">
          <mxGeometry relative="1" as="geometry">
            <Array as="points">
              <mxPoint x="545" y="692" />
              <mxPoint x="959" y="692" />
            </Array>
          </mxGeometry>
        </mxCell>
        <mxCell id="iK6Vckgqgcv6s7LHoRTM-41" value="&lt;font style=&quot;font-size: 14px;&quot;&gt;FeedViewModel&lt;/font&gt;" style="rounded=0;whiteSpace=wrap;html=1;fillColor=none;strokeColor=#67AB9F;strokeWidth=4;fontSize=14;fontColor=#67AB9F;" parent="1" vertex="1">
          <mxGeometry x="457" y="738.38" width="176.5" height="48.62" as="geometry" />
        </mxCell>
        <mxCell id="wRX7bdEk1FUPvkicqvMD-26" style="edgeStyle=orthogonalEdgeStyle;rounded=0;orthogonalLoop=1;jettySize=auto;html=1;exitX=0.5;exitY=1;exitDx=0;exitDy=0;strokeWidth=2;strokeColor=#67AB9F;" edge="1" parent="1" source="iK6Vckgqgcv6s7LHoRTM-51" target="wRX7bdEk1FUPvkicqvMD-12">
          <mxGeometry relative="1" as="geometry" />
        </mxCell>
        <mxCell id="wRX7bdEk1FUPvkicqvMD-27" style="edgeStyle=orthogonalEdgeStyle;rounded=0;orthogonalLoop=1;jettySize=auto;html=1;exitX=0.5;exitY=1;exitDx=0;exitDy=0;entryX=0.5;entryY=0;entryDx=0;entryDy=0;strokeWidth=2;strokeColor=#67AB9F;" edge="1" parent="1" source="iK6Vckgqgcv6s7LHoRTM-51" target="wRX7bdEk1FUPvkicqvMD-14">
          <mxGeometry relative="1" as="geometry" />
        </mxCell>
        <mxCell id="wRX7bdEk1FUPvkicqvMD-48" style="edgeStyle=orthogonalEdgeStyle;rounded=0;orthogonalLoop=1;jettySize=auto;html=1;exitX=0.5;exitY=0;exitDx=0;exitDy=0;entryX=0.75;entryY=1;entryDx=0;entryDy=0;strokeWidth=2;strokeColor=#67AB9F;" edge="1" parent="1" source="iK6Vckgqgcv6s7LHoRTM-51" target="kslnaKKYkAR8ZkGTqqHD-33">
          <mxGeometry relative="1" as="geometry" />
        </mxCell>
        <mxCell id="iK6Vckgqgcv6s7LHoRTM-51" value="&lt;font style=&quot;font-size: 14px;&quot;&gt;FeedImagePresenter&lt;/font&gt;" style="rounded=0;whiteSpace=wrap;html=1;fillColor=none;strokeColor=#67AB9F;strokeWidth=4;fontSize=14;fontColor=#67AB9F;" parent="1" vertex="1">
          <mxGeometry x="1155.5" y="738.38" width="267.5" height="44" as="geometry" />
        </mxCell>
        <mxCell id="iK6Vckgqgcv6s7LHoRTM-53" value="&lt;font style=&quot;font-size: 14px;&quot;&gt;Internal&lt;/font&gt;" style="text;html=1;strokeColor=none;fillColor=none;align=center;verticalAlign=middle;whiteSpace=wrap;rounded=0;labelPosition=center;verticalLabelPosition=middle;fontColor=#67AB9F;" parent="1" vertex="1">
          <mxGeometry x="573.5" y="734" width="60" height="30" as="geometry" />
        </mxCell>
        <mxCell id="iK6Vckgqgcv6s7LHoRTM-54" value="&lt;font style=&quot;font-size: 14px;&quot;&gt;Internal&lt;/font&gt;" style="text;html=1;strokeColor=none;fillColor=none;align=center;verticalAlign=middle;whiteSpace=wrap;rounded=0;labelPosition=center;verticalLabelPosition=middle;fontColor=#67AB9F;" parent="1" vertex="1">
          <mxGeometry x="1363" y="734" width="60" height="30" as="geometry" />
        </mxCell>
        <mxCell id="iK6Vckgqgcv6s7LHoRTM-59" value="&lt;span style=&quot;font-size: 14px;&quot;&gt;&lt;font style=&quot;font-size: 14px;&quot;&gt;UIImage&lt;/font&gt;&lt;/span&gt;" style="rounded=0;whiteSpace=wrap;html=1;strokeWidth=4;fillColor=none;strokeColor=#5CC93B;fontSize=14;fontColor=#5CC93B;" parent="1" vertex="1">
          <mxGeometry x="1267.5" y="1149" width="140" height="44" as="geometry" />
        </mxCell>
        <mxCell id="iK6Vckgqgcv6s7LHoRTM-76" value="&lt;font&gt;Feed Presentation module&lt;/font&gt;" style="text;html=1;strokeColor=none;fillColor=none;align=center;verticalAlign=middle;whiteSpace=wrap;rounded=0;strokeWidth=0;fontColor=#67AB9F;fontStyle=0;fontSize=16;" parent="1" vertex="1">
          <mxGeometry x="1407.5" y="675" width="217" height="30" as="geometry" />
        </mxCell>
        <mxCell id="wRX7bdEk1FUPvkicqvMD-2" value="&lt;font style=&quot;font-size: 14px;&quot;&gt;&amp;lt;FeedImageDataLoader&amp;gt;&lt;/font&gt;" style="rounded=0;whiteSpace=wrap;html=1;fillColor=none;strokeColor=#FF0000;strokeWidth=4;fontSize=14;fontColor=#FF0000;" vertex="1" parent="1">
          <mxGeometry x="120" y="968.25" width="238" height="39" as="geometry" />
        </mxCell>
        <mxCell id="wRX7bdEk1FUPvkicqvMD-3" value="&amp;lt;FeedImageDataLoaderTask&amp;gt;" style="rounded=0;whiteSpace=wrap;html=1;fillColor=none;strokeColor=#FF0000;strokeWidth=4;fontSize=14;fontColor=#FF0000;" vertex="1" parent="1">
          <mxGeometry x="120" y="1032" width="242" height="39" as="geometry" />
        </mxCell>
        <mxCell id="wRX7bdEk1FUPvkicqvMD-4" value="" style="rounded=0;whiteSpace=wrap;html=1;fillColor=none;strokeWidth=4;strokeColor=#ff0000;" vertex="1" parent="1">
          <mxGeometry x="84" y="947" width="301" height="148" as="geometry" />
        </mxCell>
        <mxCell id="wRX7bdEk1FUPvkicqvMD-5" value="Feed Feature module?" style="text;html=1;strokeColor=none;fillColor=none;align=center;verticalAlign=middle;whiteSpace=wrap;rounded=0;strokeWidth=0;fontColor=#FF0000;fontStyle=0;fontSize=16;" vertex="1" parent="1">
          <mxGeometry x="84" y="918" width="167" height="30" as="geometry" />
        </mxCell>
        <mxCell id="wRX7bdEk1FUPvkicqvMD-12" value="&lt;font style=&quot;font-size: 14px;&quot;&gt;FeedImageViewModel&lt;/font&gt;" style="rounded=0;whiteSpace=wrap;html=1;fillColor=none;strokeColor=#67AB9F;strokeWidth=4;fontSize=14;fontColor=#67AB9F;" vertex="1" parent="1">
          <mxGeometry x="1004" y="834.38" width="260" height="44" as="geometry" />
        </mxCell>
        <mxCell id="wRX7bdEk1FUPvkicqvMD-13" value="&lt;font style=&quot;font-size: 14px;&quot;&gt;Internal&lt;/font&gt;" style="text;html=1;strokeColor=none;fillColor=none;align=center;verticalAlign=middle;whiteSpace=wrap;rounded=0;labelPosition=center;verticalLabelPosition=middle;fontColor=#67AB9F;" vertex="1" parent="1">
          <mxGeometry x="1204" y="830" width="60" height="30" as="geometry" />
        </mxCell>
        <mxCell id="wRX7bdEk1FUPvkicqvMD-14" value="&lt;font style=&quot;font-size: 14px;&quot;&gt;&amp;lt;FeedImageView&amp;gt;&lt;/font&gt;" style="rounded=0;whiteSpace=wrap;html=1;fillColor=none;strokeColor=#67AB9F;strokeWidth=4;fontSize=14;fontColor=#67AB9F;" vertex="1" parent="1">
          <mxGeometry x="1366" y="834.38" width="238" height="44" as="geometry" />
        </mxCell>
        <mxCell id="wRX7bdEk1FUPvkicqvMD-15" value="&lt;font style=&quot;font-size: 14px;&quot;&gt;Internal&lt;/font&gt;" style="text;html=1;strokeColor=none;fillColor=none;align=center;verticalAlign=middle;whiteSpace=wrap;rounded=0;labelPosition=center;verticalLabelPosition=middle;fontColor=#67AB9F;" vertex="1" parent="1">
          <mxGeometry x="1544" y="830" width="60" height="30" as="geometry" />
        </mxCell>
        <mxCell id="wRX7bdEk1FUPvkicqvMD-16" value="&lt;font style=&quot;font-size: 14px;&quot;&gt;FeedLoadingViewModel&lt;/font&gt;" style="rounded=0;whiteSpace=wrap;html=1;fillColor=none;strokeColor=#67AB9F;strokeWidth=4;fontSize=14;fontColor=#67AB9F;" vertex="1" parent="1">
          <mxGeometry x="156" y="833.38" width="235.25" height="48.62" as="geometry" />
        </mxCell>
        <mxCell id="wRX7bdEk1FUPvkicqvMD-17" value="&lt;font style=&quot;font-size: 14px;&quot;&gt;Internal&lt;/font&gt;" style="text;html=1;strokeColor=none;fillColor=none;align=center;verticalAlign=middle;whiteSpace=wrap;rounded=0;labelPosition=center;verticalLabelPosition=middle;fontColor=#67AB9F;" vertex="1" parent="1">
          <mxGeometry x="331.25" y="829" width="60" height="30" as="geometry" />
        </mxCell>
        <mxCell id="wRX7bdEk1FUPvkicqvMD-18" value="&lt;font style=&quot;font-size: 14px;&quot;&gt;&amp;lt;FeedLoadingView&amp;gt;&lt;/font&gt;" style="rounded=0;whiteSpace=wrap;html=1;fillColor=none;strokeColor=#67AB9F;strokeWidth=4;fontSize=14;fontColor=#67AB9F;" vertex="1" parent="1">
          <mxGeometry x="443" y="833.38" width="205.5" height="48.62" as="geometry" />
        </mxCell>
        <mxCell id="wRX7bdEk1FUPvkicqvMD-19" value="&lt;font style=&quot;font-size: 14px;&quot;&gt;Internal&lt;/font&gt;" style="text;html=1;strokeColor=none;fillColor=none;align=center;verticalAlign=middle;whiteSpace=wrap;rounded=0;labelPosition=center;verticalLabelPosition=middle;fontColor=#67AB9F;" vertex="1" parent="1">
          <mxGeometry x="588.5" y="829" width="60" height="30" as="geometry" />
        </mxCell>
        <mxCell id="wRX7bdEk1FUPvkicqvMD-20" value="&lt;font style=&quot;font-size: 14px;&quot;&gt;&amp;lt;FeedView&amp;gt;&lt;/font&gt;" style="rounded=0;whiteSpace=wrap;html=1;fillColor=none;strokeColor=#67AB9F;strokeWidth=4;fontSize=14;fontColor=#67AB9F;" vertex="1" parent="1">
          <mxGeometry x="703" y="833.38" width="176.5" height="48.62" as="geometry" />
        </mxCell>
        <mxCell id="wRX7bdEk1FUPvkicqvMD-21" value="&lt;font style=&quot;font-size: 14px;&quot;&gt;Internal&lt;/font&gt;" style="text;html=1;strokeColor=none;fillColor=none;align=center;verticalAlign=middle;whiteSpace=wrap;rounded=0;labelPosition=center;verticalLabelPosition=middle;fontColor=#67AB9F;" vertex="1" parent="1">
          <mxGeometry x="819.5" y="829" width="60" height="30" as="geometry" />
        </mxCell>
      </root>
    </mxGraphModel>
  </diagram>
</mxfile>
